# xmcd
#
# Track frame offsets:
#	150
#	24250
#	39819
#	58470
#	82125
#	113245
#	131157
#	144070
#	169457
#	192232
#	218945
#	249245
#	269620
#	291445
#
# Disc length: 4269
#
# Revision: 1
# Processed by: cddbd v1.5.1PL0 Copyright (c) Steve Scherf et al.
# Submitted via: CDex 1.51
# Normalized: r0:DSETVAR1,TDELIM( - )
#
DISCID=d610ab0e
DTITLE=Various Artist - Blues Rock 2
DYEAR=2003
DGENRE=Blues
TTITLE0=Stevie Ray Vaughan And Double Trouble - Texas Flood
TTITLE1=The Greg Allman Band - Demons
TTITLE2=Janis Joplin - One Good Man
TTITLE3=Johnny Winter - Be Careful With A Fool
TTITLE4=Bloomfield and Kooper - Albert's Shuffle
TTITLE5=Big Brother and The Holding Company - Buried Alive In The Blues
TTITLE6=Fleetwood Mac - Black Magic Woman
TTITLE7=The Gary Moore Band - Boogie My Way Back Home
TTITLE8=The Vaughan Brothers - Brothers
TTITLE9=Blood, Sweat and Tears - I LOve You More Than You'll Ever Know
TTITLE10=The Allman Brothers Band - Gambler's Roll
TTITLE11=Omar and The Howlers - Down In Mississippi
TTITLE12=Keb' Mo' - More Than One Way Home
TTITLE13=Jimmie Vaughan - Dengue Woman Blues
EXTD=YEAR: 2003
EXTT0=
EXTT1=
EXTT2=
EXTT3=
EXTT4=
EXTT5=
EXTT6=
EXTT7=
EXTT8=
EXTT9=
EXTT10=
EXTT11=
EXTT12=
EXTT13=
PLAYORDER=
